<?xml version="1.0" encoding="UTF-8" standalone="no"?>
<!-- Created with Inkscape (http://www.inkscape.org/) -->

<svg
   version="1.1"
   id="svg8484"
   width="256"
   height="256"
   viewBox="0 0 256 256"
   sodipodi:docname="icon.svg"
   inkscape:version="1.4 (e7c3feb100, 2024-10-09)"
   inkscape:export-filename="icon_512x512.png"
   inkscape:export-xdpi="192.75294"
   inkscape:export-ydpi="192.75294"
   xmlns:inkscape="http://www.inkscape.org/namespaces/inkscape"
   xmlns:sodipodi="http://sodipodi.sourceforge.net/DTD/sodipodi-0.dtd"
   xmlns="http://www.w3.org/2000/svg"
   xmlns:svg="http://www.w3.org/2000/svg">
  <defs
     id="defs8488" />
  <sodipodi:namedview
     id="namedview8486"
     pagecolor="#505050"
     bordercolor="#ffffff"
     borderopacity="1"
     inkscape:showpageshadow="0"
     inkscape:pageopacity="0"
     inkscape:pagecheckerboard="1"
     inkscape:deskcolor="#505050"
     showgrid="false"
     inkscape:zoom="1.0488889"
     inkscape:cx="116.31356"
     inkscape:cy="133.95127"
     inkscape:window-width="1410"
     inkscape:window-height="764"
     inkscape:window-x="0"
     inkscape:window-y="0"
     inkscape:window-maximized="0"
     inkscape:current-layer="svg8484" />
  <rect
     style="fill:#073642;fill-rule:evenodd;stroke-width:3;stroke-linejoin:round;paint-order:markers fill stroke"
     id="rect1"
     width="255"
     height="255"
     x="0"
     y="0"
     ry="2.6691551" />
  <path
     id="path12832"
     style="font-variation-settings:normal;opacity:1;vector-effect:none;fill:#268bd2;fill-opacity:1;stroke:none;stroke-width:1.09896px;stroke-linecap:butt;stroke-linejoin:miter;stroke-miterlimit:4;stroke-dasharray:none;stroke-dashoffset:0;stroke-opacity:1;-inkscape-stroke:none;stop-color:#000000;stop-opacity:1"
     d="m 144.65953,153.6327 c -1.61605,3.3658 -7.9151,6.23656 -11.56237,1.46081 -3.64728,-4.77573 -5.99916,-15.57251 -1.68736,-26.61733 5.91566,-15.15318 26.90878,-37.085972 65.75378,-36.230482 38.84498,0.855489 43.67893,20.070532 43.54381,27.926802 -0.13512,7.85628 -4.99613,21.03192 -22.71736,28.52685 -20.05444,8.48171 -29.68227,9.20476 -35.55985,9.54754 -3.33992,0.19477 -4.51801,-6.21509 -0.1218,-7.17895 3.07402,-0.67399 35.97352,-13.22252 37.03106,-30.42922 0.93011,-15.13331 -26.11171,-13.28304 -32.78273,-11.16218 -6.671,2.12084 -22.80834,8.04728 -31.82139,23.60741 -6.38848,11.02905 -8.45928,17.18203 -10.07579,20.54875 z M 70.733863,111.54543 c 4.543564,-0.0511 6.018867,5.13007 1.498368,6.78687 -4.023475,1.47464 -38.634611,16.34071 -37.719598,31.58092 0.768526,12.80035 21.898364,14.92259 38.053971,8.84003 20.398941,-7.68017 24.450889,-19.34368 36.232946,-41.72129 6.09286,-11.57213 15.09048,-1.82145 15.98524,3.47636 1.89273,11.20655 -0.0598,40.21176 -35.932305,51.62397 -34.676283,11.03168 -74.468077,3.94295 -75.263975,-22.83158 -0.873767,-29.3941 49.103819,-37.66482 57.145353,-37.75528 z M 6.1793658,117.94247 C 5.1169565,117.00911 4.9228349,115.11383 6.5315583,112.89587 11.302907,106.31754 22.99974,98.503235 33.579239,94.279289 54.714467,85.840888 92.734593,75.023735 154.51057,69.284619 204.52085,64.63856 241.53621,63.74802 247.352,66.003607 c 4.13736,1.604628 7.39639,7.851029 -2.13661,9.517432 -11.98606,2.095212 -85.16822,11.745385 -113.31513,14.681951 -28.14692,2.936566 -69.138409,8.772389 -88.490204,14.01913 -21.395092,5.80074 -30.437501,12.29678 -32.578653,13.49282 -1.4997503,0.83775 -3.5896281,1.16089 -4.6520372,0.22753 z" />
</svg>
